<?xml version="1.0" encoding="UTF-8" standalone="no" ?>
<!DOCTYPE svg PUBLIC "-//W3C//DTD SVG 1.1//EN" "http://www.w3.org/Graphics/SVG/1.1/DTD/svg11.dtd">
<svg xmlns="http://www.w3.org/2000/svg" xmlns:xlink="http://www.w3.org/1999/xlink" version="1.1" width="428" height="428" viewBox="0 0 428 428" xml:space="preserve">
<desc>Created with Fabric.js 5.3.0</desc>
<defs>
</defs>
<g transform="matrix(0.9137157062 0 0 0.9137157062 84.1387798352 318.994362542)" id="ar9TT4PKxQniMxOSSWGiB"  >
<path style="stroke: rgb(250,99,133); stroke-width: 0; stroke-dasharray: none; stroke-linecap: butt; stroke-dashoffset: 0; stroke-linejoin: miter; stroke-miterlimit: 4; fill: rgb(0,0,0); fill-rule: nonzero; opacity: 1;" vector-effect="non-scaling-stroke"  transform=" translate(0, 0)" d="M 0 -85.68207 C 47.2965 -85.68207 85.68207 -47.296499999999995 85.68207 0 C 85.68207 47.2965 47.296499999999995 85.68207 0 85.68207 C -47.2965 85.68207 -85.68207 47.296499999999995 -85.68207 0 C -85.68207 -47.2965 -47.296499999999995 -85.68207 0 -85.68207 z" stroke-linecap="round" />
</g>
<g transform="matrix(0.8070216267 0 0 0.8070216267 84.1387798352 318.994362542)" id="K1Z4ZQzCTnlFPz73CCUdi"  >
<path style="stroke: rgb(250,99,133); stroke-width: 0; stroke-dasharray: none; stroke-linecap: butt; stroke-dashoffset: 0; stroke-linejoin: miter; stroke-miterlimit: 4; fill: rgb(108,59,244); fill-rule: nonzero; opacity: 1;" vector-effect="non-scaling-stroke"  transform=" translate(0, 0)" d="M 0 -85.68207 C 47.2965 -85.68207 85.68207 -47.296499999999995 85.68207 0 C 85.68207 47.2965 47.296499999999995 85.68207 0 85.68207 C -47.2965 85.68207 -85.68207 47.296499999999995 -85.68207 0 C -85.68207 -47.2965 -47.296499999999995 -85.68207 0 -85.68207 z" stroke-linecap="round" />
</g>
<g transform="matrix(0.9137157062 0 0 0.9137157062 343.8612211237 318.9943635009)" id="KENHWzRNUTbV9f2Rq0exn"  >
<path style="stroke: rgb(250,99,133); stroke-width: 0; stroke-dasharray: none; stroke-linecap: butt; stroke-dashoffset: 0; stroke-linejoin: miter; stroke-miterlimit: 4; fill: rgb(0,0,0); fill-rule: nonzero; opacity: 1;" vector-effect="non-scaling-stroke"  transform=" translate(0, 0)" d="M 0 -85.68207 C 47.2965 -85.68207 85.68207 -47.296499999999995 85.68207 0 C 85.68207 47.2965 47.296499999999995 85.68207 0 85.68207 C -47.2965 85.68207 -85.68207 47.296499999999995 -85.68207 0 C -85.68207 -47.2965 -47.296499999999995 -85.68207 0 -85.68207 z" stroke-linecap="round" />
</g>
<g transform="matrix(0.8070216267 0 0 0.8070216267 343.8612211237 318.9943635009)" id="h4TudG7moaVD8J7iQjxyT"  >
<path style="stroke: rgb(250,99,133); stroke-width: 0; stroke-dasharray: none; stroke-linecap: butt; stroke-dashoffset: 0; stroke-linejoin: miter; stroke-miterlimit: 4; fill: rgb(108,59,244); fill-rule: nonzero; opacity: 1;" vector-effect="non-scaling-stroke"  transform=" translate(0, 0)" d="M 0 -85.68207 C 47.2965 -85.68207 85.68207 -47.296499999999995 85.68207 0 C 85.68207 47.2965 47.296499999999995 85.68207 0 85.68207 C -47.2965 85.68207 -85.68207 47.296499999999995 -85.68207 0 C -85.68207 -47.2965 -47.296499999999995 -85.68207 0 -85.68207 z" stroke-linecap="round" />
</g>
<g transform="matrix(0.9137157062 0 0 0.9137157062 212.7268365625 109.0056364991)" id="ZZFKoKl0RVXnEXy31FORb"  >
<path style="stroke: rgb(250,99,133); stroke-width: 0; stroke-dasharray: none; stroke-linecap: butt; stroke-dashoffset: 0; stroke-linejoin: miter; stroke-miterlimit: 4; fill: rgb(0,0,0); fill-rule: nonzero; opacity: 1;" vector-effect="non-scaling-stroke"  transform=" translate(0, 0)" d="M 0 -85.68207 C 47.2965 -85.68207 85.68207 -47.296499999999995 85.68207 0 C 85.68207 47.2965 47.296499999999995 85.68207 0 85.68207 C -47.2965 85.68207 -85.68207 47.296499999999995 -85.68207 0 C -85.68207 -47.2965 -47.296499999999995 -85.68207 0 -85.68207 z" stroke-linecap="round" />
</g>
<g transform="matrix(0.8070216267 0 0 0.8070216267 212.7268365625 109.0056364991)" id="pkzTXigLEHx2ZEl5S5_Sh"  >
<path style="stroke: rgb(250,99,133); stroke-width: 0; stroke-dasharray: none; stroke-linecap: butt; stroke-dashoffset: 0; stroke-linejoin: miter; stroke-miterlimit: 4; fill: rgb(108,59,244); fill-rule: nonzero; opacity: 1;" vector-effect="non-scaling-stroke"  transform=" translate(0, 0)" d="M 0 -85.68207 C 47.2965 -85.68207 85.68207 -47.296499999999995 85.68207 0 C 85.68207 47.2965 47.296499999999995 85.68207 0 85.68207 C -47.2965 85.68207 -85.68207 47.296499999999995 -85.68207 0 C -85.68207 -47.2965 -47.296499999999995 -85.68207 0 -85.68207 z" stroke-linecap="round" />
</g>
<g transform="matrix(1 0 0 1 121.5245656013 253.8574853421)" id="NSya3blg9Q4UQZgypYr0i"  >
<path style="stroke: rgb(0,0,0); stroke-width: 1; stroke-dasharray: none; stroke-linecap: butt; stroke-dashoffset: 0; stroke-linejoin: miter; stroke-miterlimit: 4; fill: rgb(255,255,255); fill-opacity: 0; fill-rule: nonzero; opacity: 1;" vector-effect="non-scaling-stroke"  transform=" translate(0, 0)" d="M 0 0" stroke-linecap="round" />
</g>
<g transform="matrix(1 0 0 1 -177.1661942983 125.8917515294)" id="0t_rhf1nem78xkr1XvRzq"  >
<path style="stroke: rgb(0,0,0); stroke-width: 1; stroke-dasharray: none; stroke-linecap: butt; stroke-dashoffset: 0; stroke-linejoin: miter; stroke-miterlimit: 4; fill: rgb(255,255,255); fill-opacity: 0; fill-rule: nonzero; opacity: 1;" vector-effect="non-scaling-stroke"  transform=" translate(0, 0)" d="M 0 0" stroke-linecap="round" />
</g>
<g transform="matrix(1.0458836382 0 0 1 216.1783728276 318.9943644597)" id="Uj_DwAoYP9O4_uYbYXGz7"  >
<path style="stroke: rgb(0,0,0); stroke-width: 8; stroke-dasharray: none; stroke-linecap: round; stroke-dashoffset: 0; stroke-linejoin: round; stroke-miterlimit: 10; fill: none; fill-rule: nonzero; opacity: 1;" vector-effect="non-scaling-stroke"  transform=" translate(0, 0)" d="M -52.14305 0 C -52.14238 0 -34.76137 0 0 0 L 52.14305 0" stroke-linecap="round" />
</g>
<g transform="matrix(1 0 0 1 148.8639117118 213.2712395698)" id="6hjeqljKF4UH_ITchNUA8"  >
<path style="stroke: rgb(0,0,0); stroke-width: 8; stroke-dasharray: none; stroke-linecap: round; stroke-dashoffset: 0; stroke-linejoin: round; stroke-miterlimit: 10; fill: none; fill-rule: nonzero; opacity: 1;" vector-effect="non-scaling-stroke"  transform=" translate(-186.1370751492, -263.4340288687)" d="M 160.48082261259333 302.32918106714465 Q 160.48882261259334 302.32918106714465 186.1370751492337 263.43402886872303 L 211.7933276858741 224.5388766703014" stroke-linecap="round" />
</g>
<g transform="matrix(1 0 0 1 279.6419495331 213.8349374278)" id="qRqYT0MwreRyHElmY_8zo"  >
<path style="stroke: rgb(0,0,0); stroke-width: 8; stroke-dasharray: none; stroke-linecap: round; stroke-dashoffset: 0; stroke-linejoin: round; stroke-miterlimit: 10; fill: none; fill-rule: nonzero; opacity: 1;" vector-effect="non-scaling-stroke"  transform=" translate(-316.9151129705, -263.9977267267)" d="M 343.6826264457388 306.27506607278167 Q 343.69062644573876 306.27506607278167 316.91497819320216 263.9977267266712 L 290.14732994066554 221.72038738056068" stroke-linecap="round" />
</g>
</svg>